<svg version="1.1" id="Layer_1" xmlns="http://www.w3.org/2000/svg" xmlns:xlink="http://www.w3.org/1999/xlink" x="0px" y="0px"
	 width="100%" viewBox="0 0 512 512" enable-background="new 0 0 512 512" xml:space="preserve">

    <path fill="rgb(248 250 252);" d="
      M256,0 a50,50,0,0,0,0,512 a-50,-50,0,0,0,0,-512 z m-8,32 z
    "></path>


<path fill="rgb(29 78 216)" opacity="1.000000" stroke="none" 
	d="
M412.039246,362.979614 
	C399.743378,362.927124 401.674316,363.288452 401.655365,353.033600 
	C401.594421,320.044739 401.709167,287.055511 401.618713,254.066803 
	C401.560211,232.733124 403.811096,211.554108 405.487305,190.333405 
	C405.591827,189.010193 405.626404,187.681473 405.105774,186.193420 
	C402.904297,193.627670 400.641815,201.044479 398.511963,208.499207 
	C389.264038,240.867889 376.070892,271.851196 365.172241,303.639465 
	C364.304504,306.170441 362.840942,307.223236 360.056244,307.348511 
	C344.130188,308.065002 344.127594,308.134705 338.888824,293.063782 
	C327.580505,260.531921 314.887421,228.469452 305.721466,195.210953 
	C305.156952,193.162582 304.485626,191.143677 303.411194,189.194336 
	C304.104095,200.867813 304.814392,212.540283 305.484680,224.215042 
	C306.085327,234.676682 307.071930,245.138107 307.138702,255.604416 
	C307.352173,289.091858 307.223816,322.581543 307.211761,356.070343 
	C307.209381,362.618256 306.921783,362.914856 300.547974,362.978271 
	C295.716797,363.026367 290.881653,362.873566 286.053986,363.010834 
	C282.218750,363.119873 280.696472,361.526398 280.775879,357.655548 
	C280.946716,349.328522 280.826050,340.995514 280.826355,332.664978 
	C280.828400,274.850952 280.826843,217.036942 280.838165,159.222916 
	C280.839600,151.754196 280.870728,151.746521 288.269562,151.734024 
	C295.267212,151.722214 302.275696,151.962128 309.258453,151.639084 
	C313.388550,151.448013 315.092773,153.127029 316.284637,156.888550 
	C328.242920,194.629364 341.651398,231.903763 352.661255,269.952362 
	C353.003265,271.134308 352.955902,272.659088 354.740234,273.670013 
	C357.863617,266.605377 359.398499,259.128601 361.583710,251.891083 
	C371.303009,219.700195 382.665802,188.051315 392.972961,156.055832 
	C394.010590,152.834854 395.700409,151.579956 399.103912,151.670883 
	C406.762543,151.875534 414.442047,151.992157 422.090332,151.644821 
	C427.109863,151.416885 428.369049,153.531235 428.253784,158.112213 
	C428.015015,167.603027 428.180481,177.104004 428.180420,186.600815 
	C428.180054,242.415512 428.181122,298.230194 428.178406,354.044891 
	C428.177948,362.941498 428.170227,362.941589 419.025024,362.964935 
	C416.859802,362.970459 414.694611,362.974945 412.039246,362.979614 
z"/>
<path fill="rgb(29 78 216)" opacity="1.000000" stroke="none" 
	d="
M88.725494,282.928772 
	C84.981361,257.410217 85.882065,232.603165 94.888611,208.713120 
	C106.328575,178.368347 127.076439,157.684982 159.401672,150.341812 
	C187.772568,143.896927 213.222183,149.755646 234.982025,169.641190 
	C239.517242,173.785782 239.534668,173.983246 235.267319,178.676926 
	C231.487183,182.834717 228.136551,187.404877 223.619446,191.112946 
	C222.702621,190.406448 221.845566,189.897537 221.175018,189.207413 
	C194.398331,161.649185 147.365768,168.910095 128.085175,203.020157 
	C120.441696,216.542542 116.659027,231.062668 115.675621,246.294250 
	C114.240608,268.520538 116.696121,290.105957 127.625038,310.165924 
	C147.756546,347.117065 196.045227,352.664398 223.872849,323.601349 
	C228.685486,318.575043 228.803818,318.675842 233.621735,323.892273 
	C236.448059,326.952393 239.162979,330.121124 242.091873,333.078735 
	C244.055069,335.061218 243.916733,336.669495 242.096436,338.620758 
	C226.562485,355.272461 207.872253,365.266510 184.772720,366.365204 
	C156.722992,367.699371 132.577942,359.195740 113.463699,338.184021 
	C100.546768,323.984802 93.598351,306.819580 89.700432,288.264587 
	C89.358780,286.638214 89.069321,285.000916 88.725494,282.928772 
z"/>
</svg>